<?xml version="1.0" encoding="UTF-8"?>
<svg version="1.1" xmlns="http://www.w3.org/2000/svg" width="1024" height="1024">
<path d="M0 0 C9.05333482 7.9882366 15.48921408 18.84867644 16.26171875 31.015625 C16.44470997 44.63322186 13.35865887 54.99209947 3.8828125 65.1484375 C-0.51693092 69.24422628 -6.57985416 74.81640625 -12.94140625 74.81640625 C-12.94140625 82.40640625 -12.94140625 89.99640625 -12.94140625 97.81640625 C-9.97140625 97.81640625 -7.00140625 97.81640625 -3.94140625 97.81640625 C29.8855373 100.20920361 57.19402004 113.4072411 79.6796875 138.81640625 C90.93579378 153.0112989 96.8550935 169.38424345 101.05859375 186.81640625 C101.05859375 185.82640625 101.05859375 184.83640625 101.05859375 183.81640625 C101.71859375 183.81640625 102.37859375 183.81640625 103.05859375 183.81640625 C103.31729248 183.13368652 103.57599121 182.4509668 103.8425293 181.74755859 C105.23859267 178.38254418 106.85154679 175.15541341 108.515625 171.91796875 C108.85485489 171.25450943 109.19408478 170.59105011 109.54359436 169.90748596 C113.67019585 161.85371635 117.84796436 153.82652775 122.05859375 145.81640625 C122.38096008 145.20242981 122.70332642 144.58845337 123.03546143 143.95587158 C135.38720085 120.48814143 147.37574948 107.94916068 171.55859375 97.12890625 C173.11548158 96.42559579 174.67212 95.72173299 176.22851562 95.01733398 C180.83279685 92.93743504 185.44435055 90.8740954 190.05859375 88.81640625 C190.73760742 88.513396 191.41662109 88.21038574 192.11621094 87.89819336 C221.35186888 74.85978704 221.35186888 74.85978704 230.28125 77.46484375 C236.1547341 80.11300421 240.35363831 84.18131258 243.09375 90.0234375 C247.42750004 101.85558295 243.34720408 112.54753886 238.29077148 123.50268555 C237.82227783 124.49308838 237.35378418 125.48349121 236.87109375 126.50390625 C236.38133057 127.55553955 235.89156738 128.60717285 235.38696289 129.69067383 C232.3711959 136.13315725 229.26999399 142.52813506 226.0480957 148.86987305 C222.88150515 155.10904474 219.88779725 161.42745351 216.90991211 167.75854492 C213.091222 175.84372203 209.0735384 183.82761499 205.05859375 191.81640625 C190.4533402 220.8692236 190.4533402 220.8692236 176.31787109 250.15234375 C174.01445306 255.02533669 171.69268881 259.8895545 169.37109375 264.75390625 C168.74750977 266.06669556 168.74750977 266.06669556 168.11132812 267.40600586 C165.6220257 272.6258711 163.07044275 277.81188078 160.4765625 282.98046875 C154.92961791 294.03499711 149.49932678 305.14683287 144.05859375 316.25390625 C143.23488281 317.93492432 143.23488281 317.93492432 142.39453125 319.64990234 C126.05856338 352.93330588 126.05856338 352.93330588 110.05859375 386.37890625 C100.68572821 406.22224353 91.14017187 425.82479972 77.05859375 442.81640625 C76.43597656 443.59113281 75.81335938 444.36585938 75.171875 445.1640625 C73.85831573 446.76386955 72.46846584 448.30079375 71.05859375 449.81640625 C70.39859375 449.81640625 69.73859375 449.81640625 69.05859375 449.81640625 C68.79844482 450.41622314 68.5382959 451.01604004 68.27026367 451.6340332 C66.96563311 453.9838403 65.78870148 455.10589546 63.671875 456.734375 C62.98843018 457.26216553 62.30498535 457.78995605 61.60083008 458.33374023 C60.86501709 458.88489502 60.1292041 459.4360498 59.37109375 460.00390625 C58.61014404 460.57761963 57.84919434 461.15133301 57.06518555 461.74243164 C26.93654217 484.12218949 -8.30897928 493.66067363 -45.56640625 488.62890625 C-69.82917522 484.97539626 -95.41181258 475.19853045 -113.94140625 458.81640625 C-114.864375 458.02492188 -115.78734375 457.2334375 -116.73828125 456.41796875 C-123.79374689 450.25938434 -123.79374689 450.25938434 -124.94140625 446.81640625 C-125.93140625 446.48640625 -126.92140625 446.15640625 -127.94140625 445.81640625 C-145.6627104 424.63728666 -157.35909392 397.63434921 -168.94140625 372.81640625 C-170.49963358 369.50188247 -172.0631588 366.1898835 -173.62890625 362.87890625 C-173.99830322 362.09725098 -174.3677002 361.3155957 -174.74829102 360.51025391 C-177.97935392 353.69384172 -181.33713075 346.94596429 -184.73388672 340.2109375 C-191.80092627 326.19688091 -198.82817653 312.16985161 -205.56567383 297.99389648 C-209.6456553 289.41257158 -213.78987662 280.86326035 -217.94140625 272.31640625 C-223.86538426 260.11618009 -229.74634612 247.89641044 -235.58642578 235.65576172 C-238.09691268 230.39504773 -240.61140807 225.13626838 -243.12890625 219.87890625 C-243.59200195 218.90888672 -244.05509766 217.93886719 -244.53222656 216.93945312 C-247.23593858 211.29642804 -249.9976676 205.68584774 -252.8046875 200.09375 C-257.27481085 191.18750144 -261.61142394 182.2186401 -265.94140625 173.24365234 C-269.57156215 165.7227776 -273.22774261 158.21839857 -276.98046875 150.7578125 C-280.5689662 143.61475797 -284.03270257 136.41866258 -287.41650391 129.17651367 C-288.33229103 127.21996902 -289.25596122 125.26725988 -290.1796875 123.31445312 C-290.77522033 122.04319385 -291.37029034 120.77171764 -291.96484375 119.5 C-292.48997559 118.38165771 -293.01510742 117.26331543 -293.55615234 116.11108398 C-296.84290597 108.29389326 -298.72777811 100.3669188 -296.06640625 92.09765625 C-293.11481901 85.65076834 -289.17602456 80.74897466 -282.64697266 77.76928711 C-275.10663646 75.11363541 -268.04236186 76.65785496 -260.96313477 79.86425781 C-260.00721436 80.3228418 -259.05129395 80.78142578 -258.06640625 81.25390625 C-257.02991943 81.73182617 -255.99343262 82.20974609 -254.92553711 82.70214844 C-252.58877937 83.78098894 -250.25590626 84.86826967 -247.92626953 85.96240234 C-244.27089248 87.67283725 -240.59295556 89.3300819 -236.9095459 90.97914124 C-233.59386034 92.4636559 -230.28259289 93.95787135 -226.97186279 95.45339966 C-225.34335283 96.18783006 -223.71369356 96.919718 -222.08282471 97.64889526 C-196.73610548 109.00945322 -185.55935948 123.62557451 -173.02319336 147.99707031 C-168.7447304 156.31447676 -164.32397807 164.54353372 -159.81152344 172.73608398 C-157.43330883 177.05782567 -155.10395364 181.38245841 -152.94140625 185.81640625 C-152.77125 185.29433594 -152.60109375 184.77226562 -152.42578125 184.234375 C-142.33830182 153.59633908 -126.52673187 125.34291332 -96.77001953 109.94262695 C-78.80294793 101.17181246 -58.81660706 97.81640625 -38.94140625 97.81640625 C-39.27140625 90.22640625 -39.60140625 82.63640625 -39.94140625 74.81640625 C-43.24140625 73.16640625 -46.54140625 71.51640625 -49.94140625 69.81640625 C-56.78159845 65.09667363 -61.29937941 59.22886473 -64.94140625 51.81640625 C-65.28171875 51.13191406 -65.62203125 50.44742188 -65.97265625 49.7421875 C-70.40618363 38.96625289 -68.735059 26.43103622 -64.48828125 15.9453125 C-59.25645498 5.36275483 -50.79361355 -1.74017029 -39.94140625 -6.18359375 C-26.44562505 -10.68218748 -11.54120677 -8.44943395 0 0 Z M-41.94140625 23.81640625 C-44.86234337 28.34889488 -45.83830978 32.49477864 -44.94140625 37.81640625 C-42.85797556 43.97708841 -39.73789511 47.54676617 -34.14453125 50.890625 C-29.07230954 53.02203731 -22.61114737 52.85846649 -17.51953125 50.87109375 C-12.5617827 47.90762751 -8.80210917 44.39851501 -6.94140625 38.81640625 C-6.16627705 32.37393895 -7.00918711 27.07847209 -10.94140625 21.81640625 C-16.08487725 17.00708186 -20.79235245 15.48340628 -27.85546875 15.6015625 C-33.94037253 16.2282848 -38.11535482 19.24640038 -41.94140625 23.81640625 Z M218.05859375 101.81640625 C218.05859375 102.47640625 218.05859375 103.13640625 218.05859375 103.81640625 C217.39730469 103.91050781 216.73601562 104.00460937 216.0546875 104.1015625 C212.19030373 105.02357323 208.7182602 106.60834333 205.12109375 108.25390625 C204.34620605 108.60445068 203.57131836 108.95499512 202.77294922 109.31616211 C201.09237825 110.07699033 199.41272474 110.83984764 197.73388672 111.60449219 C194.96435641 112.85909599 192.18632436 114.09317197 189.40625 115.32421875 C167.31782389 125.14589812 155.15982074 133.51806807 144.30859375 155.44140625 C143.51644951 157.01571728 142.72281459 158.58927907 141.92773438 160.16210938 C140.35331387 163.27889314 138.78467617 166.39846948 137.22070312 169.52050781 C134.39431773 175.15124112 131.48576458 180.73741421 128.55859375 186.31640625 C128.0783374 187.23518555 127.59808105 188.15396484 127.10327148 189.10058594 C124.97834723 193.16399232 122.84574872 197.22324324 120.703125 201.27734375 C120.31954834 202.0034082 119.93597168 202.72947266 119.54077148 203.47753906 C118.76084421 204.95371952 117.98040773 206.42963105 117.19946289 207.90527344 C114.4155118 213.1854259 111.68572474 218.49181146 108.97265625 223.80859375 C108.22883077 225.2632199 107.48493348 226.71780934 106.7409668 228.17236328 C105.6343547 230.3360979 104.52944589 232.50059628 103.43081665 234.668396 C99.57634645 242.27376096 95.60620959 249.77569838 91.24609375 257.10546875 C90.87830307 257.7278241 90.51051239 258.35017944 90.13157654 258.99139404 C84.7106441 267.95382839 76.89910469 272.53623594 67.05859375 275.81640625 C63.87308032 276.16047807 60.66923286 276.25184317 57.46875 276.38671875 C56.46570328 276.42959015 55.46265656 276.47246155 54.42921448 276.51663208 C45.55258626 276.84738631 36.68528611 276.86155679 27.8046875 276.80859375 C27.10224537 276.80475929 26.39980324 276.80092484 25.67607498 276.79697418 C19.12352182 276.76021152 12.5710944 276.71420881 6.01879883 276.64501953 C2.38723749 276.60731789 -1.24417058 276.58435369 -4.87589836 276.57071304 C-6.89779315 276.55887204 -8.91957153 276.5307154 -10.94129944 276.50216675 C-12.78128761 276.49698532 -12.78128761 276.49698532 -14.65844727 276.49169922 C-15.7304689 276.48202118 -16.80249054 276.47234314 -17.90699768 276.46237183 C-22.25229362 276.96935179 -25.64339123 278.48393066 -28.70703125 281.62890625 C-32.90936421 287.82181798 -36.39317254 294.29323949 -39.82055664 300.93383789 C-44.78951336 310.54532351 -50.14681691 319.92995446 -55.52148438 329.31884766 C-56.73772939 331.4581507 -57.93244877 333.60666581 -59.11328125 335.765625 C-63.47690828 343.61436123 -67.43889214 348.27369204 -75.94140625 351.81640625 C-82.2474949 353.59856174 -87.27332174 352.12322315 -93.00390625 349.31640625 C-101.04803856 342.4703362 -105.23267375 332.61423475 -109.74462891 323.27880859 C-112.06591445 318.50269966 -114.443379 313.7544608 -116.81640625 309.00390625 C-117.33525391 307.96395508 -117.85410156 306.92400391 -118.38867188 305.85253906 C-121.39675021 299.84201549 -124.46739057 293.87244194 -127.62890625 287.94140625 C-132.40176484 278.98359225 -136.918616 269.90203312 -141.44140625 260.81640625 C-147.45809642 248.7335656 -153.56933071 236.71661133 -159.94140625 224.81640625 C-164.2773376 216.69158316 -168.60239238 208.56889574 -172.69140625 200.31640625 C-177.76181982 190.08475798 -183.06542055 179.97404539 -188.35595703 169.85498047 C-189.81684768 167.05512753 -191.26926826 164.25108372 -192.71875 161.4453125 C-204.87808348 137.67922044 -204.87808348 137.67922044 -226.31640625 122.62890625 C-227.29722168 122.17402832 -228.27803711 121.71915039 -229.28857422 121.25048828 C-231.39097522 120.27712388 -233.49604669 119.30951037 -235.60351562 118.34716797 C-239.09642456 116.74531462 -242.57436927 115.11388623 -246.05078125 113.4765625 C-248.38902059 112.38086502 -250.72755581 111.2857987 -253.06640625 110.19140625 C-254.72808838 109.40987183 -254.72808838 109.40987183 -256.42333984 108.61254883 C-257.46312988 108.13068115 -258.50291992 107.64881348 -259.57421875 107.15234375 C-260.49090332 106.7248584 -261.40758789 106.29737305 -262.35205078 105.85693359 C-264.88653923 104.83845445 -267.25153259 104.25632468 -269.94140625 103.81640625 C-267.40450041 112.48416788 -263.42234212 120.3728229 -259.44140625 128.44140625 C-258.71370231 129.92708911 -257.98665844 131.41309544 -257.26025391 132.89941406 C-256.16968447 135.13070873 -255.07876343 137.36182116 -253.98574829 139.59191895 C-251.05819348 145.56554625 -248.17558265 151.55974227 -245.31640625 157.56640625 C-241.51671504 165.53512326 -237.69034232 173.49065766 -233.84863281 181.43917847 C-216.86560788 216.5803522 -216.86560788 216.5803522 -208.75390625 234.25390625 C-205.33191906 241.70563418 -201.86667602 249.11667024 -198.15283203 256.42724609 C-194.72039107 263.20011012 -191.42597748 270.03946195 -188.12890625 276.87890625 C-187.82387177 277.51146332 -187.51883728 278.14402039 -187.20455933 278.79574585 C-182.8961861 287.7328465 -178.61370629 296.68216835 -174.34326172 305.63745117 C-171.50501939 311.57780286 -168.64059711 317.50504892 -165.76171875 323.42578125 C-165.39156143 324.18708344 -165.02140411 324.94838562 -164.64002991 325.73275757 C-162.80517787 329.50524366 -160.96854202 333.27685044 -159.12963867 337.04736328 C-155.26038945 344.9893275 -151.43982082 352.9511587 -147.70344543 360.95663452 C-144.93139884 366.88521516 -142.03020459 372.74516632 -139.0703125 378.58203125 C-137.53452126 381.6232878 -136.02683302 384.67705615 -134.53125 387.73828125 C-118.22652831 420.99801022 -97.79996394 446.78430398 -61.84643555 459.45629883 C-61.07340088 459.71950928 -60.30036621 459.98271973 -59.50390625 460.25390625 C-58.78307861 460.50100342 -58.06225098 460.74810059 -57.31958008 461.00268555 C-52.1989765 462.65344903 -47.30125231 463.35699087 -41.94140625 463.81640625 C-41.70244629 463.30819336 -41.46348633 462.79998047 -41.21728516 462.27636719 C-34.97207179 449.0303539 -28.51249125 435.90281105 -21.94140625 422.81640625 C-13.99319949 406.98218431 -6.26735357 391.05740443 1.24658203 375.01220703 C4.65424594 367.73908363 8.15522951 360.52425479 11.77734375 353.35546875 C13.57246216 349.79950236 15.33417245 346.22794479 17.08984375 342.65234375 C17.62125977 341.5754126 18.15267578 340.49848145 18.70019531 339.38891602 C19.75366731 337.25366835 20.80266934 335.11620813 21.84667969 332.97631836 C27.82091127 320.91038435 27.82091127 320.91038435 32.87109375 318.44140625 C36.68516364 317.69354941 39.29052548 317.8572616 43.05859375 318.81640625 C45.76427001 320.63979677 47.59588093 321.89098061 49.05859375 324.81640625 C49.89402069 331.47157475 48.59804582 335.81517361 45.05859375 341.37890625 C44.21423717 342.79105392 43.37316267 344.2051685 42.53515625 345.62109375 C41.9014209 346.68021973 41.9014209 346.68021973 41.25488281 347.76074219 C39.50176128 350.77324899 37.95942083 353.87170378 36.43359375 357.00390625 C32.90763999 364.18240068 29.2449282 371.28723801 25.56072998 378.38534546 C17.50266671 393.9127853 9.65936787 409.50603806 2.13720703 425.30102539 C-0.6298626 431.10317925 -3.43438101 436.88297734 -6.31640625 442.62890625 C-6.63601318 443.26860352 -6.95562012 443.90830078 -7.28491211 444.56738281 C-8.68301929 447.35548793 -10.10648523 450.12489513 -11.578125 452.875 C-12.28388672 454.20724609 -12.28388672 454.20724609 -13.00390625 455.56640625 C-13.40738281 456.30375 -13.81085938 457.04109375 -14.2265625 457.80078125 C-15.09169031 460.24015803 -14.64904017 461.38171421 -13.94140625 463.81640625 C-7.56053046 464.01897374 -2.09249334 463.48914419 4.05859375 461.81640625 C4.87674561 461.5949292 5.69489746 461.37345215 6.5378418 461.14526367 C34.61353135 453.12557138 58.09859945 433.62581644 72.55078125 408.40625 C81.69957944 391.93321085 89.59861323 374.73505406 97.67724609 357.72021484 C100.08309547 352.66274357 102.50878119 347.61480594 104.93359375 342.56640625 C105.42923828 341.53394775 105.92488281 340.50148926 106.43554688 339.43774414 C110.70911066 330.53792381 114.99401294 321.64357543 119.27954102 312.74951172 C122.65713085 305.73664675 126.01924378 298.71660249 129.37109375 291.69140625 C134.21873246 281.53530613 139.1276294 271.40935539 144.04266357 261.2857666 C148.38185982 252.34778791 152.70578365 243.4029905 156.99609375 234.44140625 C162.20099828 223.57069939 167.46761375 212.73048148 172.73947144 201.89215088 C177.46865476 192.16794372 182.17153691 182.43237514 186.81884766 172.66870117 C189.54697133 166.94780033 192.30673613 161.24308184 195.0859375 155.546875 C203.61581799 138.05946175 212.01178657 120.53260838 220.05859375 102.81640625 C219.39859375 102.48640625 218.73859375 102.15640625 218.05859375 101.81640625 Z M-110.94140625 149.81640625 C-124.58270543 165.1448646 -131.04034834 185.60886476 -132.94140625 205.81640625 C-133.11800781 207.12222656 -133.29460937 208.42804688 -133.4765625 209.7734375 C-134.78904364 223.36577179 -129.03658481 233.35144197 -122.54003906 244.95214844 C-120.67157449 248.29986169 -118.89632774 251.68952664 -117.13037109 255.09204102 C-115.93378937 257.39355663 -114.72116375 259.6859228 -113.50390625 261.9765625 C-110.621807 267.40864409 -107.78197063 272.86252264 -104.94140625 278.31640625 C-103.42675247 281.2200565 -101.91163943 284.12346676 -100.39648438 287.02685547 C-99.45175722 288.83800522 -98.50770715 290.64950838 -97.56445312 292.46142578 C-92.22892195 302.70619568 -86.76731571 312.84075681 -80.94140625 322.81640625 C-77.33944364 321.61575205 -77.18615705 320.96374147 -75.48046875 317.71484375 C-75.01535889 316.8431958 -74.55024902 315.97154785 -74.07104492 315.07348633 C-73.32624878 313.64685669 -73.32624878 313.64685669 -72.56640625 312.19140625 C-71.49375751 310.18145302 -70.41948412 308.17236612 -69.34375 306.1640625 C-68.78671387 305.12008301 -68.22967773 304.07610352 -67.65576172 303.00048828 C-64.877513 297.84043135 -62.00994396 292.7320972 -59.12890625 287.62890625 C-58.61473145 286.71093262 -58.10055664 285.79295898 -57.57080078 284.84716797 C-43.29942772 259.57389693 -43.29942772 259.57389693 -29.48867798 254.67860413 C-22.83850263 253.06221624 -16.09316095 253.26852892 -9.28124428 253.29998589 C-6.50122171 253.31274539 -3.72217322 253.30121035 -0.94218445 253.28395081 C3.95539224 253.25739238 8.8527253 253.25164997 13.75036621 253.25305176 C21.59785955 253.25529015 29.44505277 253.24101956 37.29242897 253.1974659 C40.02004196 253.18768035 42.74717463 253.19631416 45.47477722 253.2061615 C47.15726022 253.20001435 48.83974065 253.19310163 50.5222168 253.18530273 C51.64537041 253.19688164 51.64537041 253.19688164 52.79121399 253.20869446 C58.58193008 253.15360421 64.32951995 252.15141121 68.87109375 248.265625 C70.30546712 246.13765661 71.69594568 243.99127313 73.05859375 241.81640625 C74.12207031 240.346875 74.12207031 240.346875 75.20703125 238.84765625 C81.91959539 229.08538998 82.2155627 220.37198639 81.05859375 208.81640625 C80.98705078 208.06842773 80.91550781 207.32044922 80.84179688 206.54980469 C78.29996379 182.78051433 69.07044955 157.53333615 50.49609375 141.69140625 C10.07449727 111.06522732 -74.62568091 112.36225692 -110.94140625 149.81640625 Z M-15.94140625 462.81640625 C-16.27140625 463.47640625 -16.60140625 464.13640625 -16.94140625 464.81640625 C-16.28140625 464.81640625 -15.62140625 464.81640625 -14.94140625 464.81640625 C-15.27140625 464.15640625 -15.60140625 463.49640625 -15.94140625 462.81640625 Z " fill="#E77210" transform="translate(537.94140625,201.18359375)"/>
<path d="M0 0 C6.4167872 0.13433391 11.20591254 2.09397548 16.9296875 4.83984375 C18.48441772 5.55672363 18.48441772 5.55672363 20.07055664 6.28808594 C22.40731438 7.36692644 24.74018749 8.45420717 27.06982422 9.54833984 C30.72520127 11.25877475 34.40313819 12.9160194 38.08654785 14.56507874 C41.40223341 16.0495934 44.71350086 17.54380885 48.02423096 19.03933716 C49.65274092 19.77376756 51.28240019 20.5056555 52.91326904 21.23483276 C78.25998827 32.59539072 89.43673427 47.21151201 101.97290039 71.58300781 C106.25136335 79.90041426 110.67211568 88.12947122 115.18457031 96.32202148 C117.56278492 100.64376317 119.89214011 104.96839591 122.0546875 109.40234375 C122.22484375 108.88027344 122.395 108.35820312 122.5703125 107.8203125 C125.65254922 98.45883821 128.84154163 89.23703698 133.2421875 80.40234375 C133.56251953 79.75136719 133.88285156 79.10039062 134.21289062 78.4296875 C136.0618312 74.8385493 138.03098329 72.08412132 141.0546875 69.40234375 C140.42804995 75.04208174 140.42804995 75.04208174 138.71875 76.69140625 C131.87819673 83.72465116 128.82132555 96.45302947 126.09643555 105.67407227 C125.50097091 107.6117291 124.78716342 109.51221911 124.0546875 111.40234375 C123.0646875 111.73234375 122.0746875 112.06234375 121.0546875 112.40234375 C120.7237207 111.76022949 120.39275391 111.11811523 120.05175781 110.45654297 C113.57785848 97.91197066 107.04345329 85.40936631 100.23657227 73.04174805 C97.67663798 68.38961318 95.16849362 63.71957008 92.73388672 59.00073242 C86.09358533 46.20564652 78.15240233 36.13189218 64.96875 29.73046875 C64.27682053 29.38976852 63.58489105 29.0490683 62.87199402 28.69804382 C54.93467769 24.81316951 46.92442378 21.08205743 38.89916992 17.38305664 C36.35692745 16.21010994 33.81807026 15.0300426 31.27929688 13.84960938 C12.9753696 4.64621144 12.9753696 4.64621144 -6.9453125 2.40234375 C-4.43383361 -0.10913514 -3.48428876 0.0652173 0 0 Z " fill="#673A10" transform="translate(262.9453125,277.59765625)"/>
<path d="M0 0 C0.928125 0.86625 1.85625 1.7325 2.8125 2.625 C8.52083206 7.54115537 15.30374965 10.65187483 22 14 C22 22.58 22 31.16 22 40 C18.349375 40.1546875 18.349375 40.1546875 14.625 40.3125 C-9.3750838 41.62363517 -34.13493333 47.27911111 -53 63 C-53.66 62.67 -54.32 62.34 -55 62 C-34.26709427 44.02024436 -6.88432094 38 20 38 C19.67 30.41 19.34 22.82 19 15 C14.05 12.525 14.05 12.525 9 10 C6.0546875 7.83203125 6.0546875 7.83203125 3.875 5.8125 C3.12992187 5.13832031 2.38484375 4.46414063 1.6171875 3.76953125 C0 2 0 2 0 0 Z " fill="#60360F" transform="translate(479,261)"/>
<path d="M0 0 C1 3 1 3 0.05957031 5.44848633 C-0.42930664 6.40005615 -0.91818359 7.35162598 -1.421875 8.33203125 C-1.95296875 9.37810547 -2.4840625 10.42417969 -3.03125 11.50195312 C-3.5984375 12.59443359 -4.165625 13.68691406 -4.75 14.8125 C-5.30171875 15.89337891 -5.8534375 16.97425781 -6.421875 18.08789062 C-7.4573879 20.11535519 -8.49699468 22.14073775 -9.54199219 24.16333008 C-11.05036823 27.09799539 -12.52929331 30.04630343 -14 33 C-14.33 33 -14.66 33 -15 33 C-15 31.35 -15 29.7 -15 28 C-14.34 28 -13.68 28 -13 28 C-12.72365723 27.12134277 -12.44731445 26.24268555 -12.16259766 25.33740234 C-11.09413329 22.27022304 -9.86259954 19.49583631 -8.3984375 16.6015625 C-7.90859375 15.62832031 -7.41875 14.65507812 -6.9140625 13.65234375 C-6.40617188 12.65332031 -5.89828125 11.65429688 -5.375 10.625 C-4.859375 9.60277344 -4.34375 8.58054687 -3.8125 7.52734375 C-2.54528127 5.01637331 -1.27435444 2.50735439 0 0 Z " fill="#67390E" transform="translate(714,447)"/>
<path d="M0 0 C1 2 1 2 0.41088867 3.77172852 C-0.08060669 4.81478149 -0.08060669 4.81478149 -0.58203125 5.87890625 C-0.93716797 6.63494141 -1.29230469 7.39097656 -1.65820312 8.16992188 C-2.22958008 9.35424805 -2.22958008 9.35424805 -2.8125 10.5625 C-3.18181641 11.35591797 -3.55113281 12.14933594 -3.93164062 12.96679688 C-6.73943452 18.86971726 -6.73943452 18.86971726 -9 20 C-9.3227506 15.37390802 -8.84450614 12.71973879 -6 9 C-5.34 9 -4.68 9 -4 9 C-3.81824219 8.15115234 -3.81824219 8.15115234 -3.6328125 7.28515625 C-3.38144531 6.18494141 -3.38144531 6.18494141 -3.125 5.0625 C-2.96257813 4.33160156 -2.80015625 3.60070312 -2.6328125 2.84765625 C-2 1 -2 1 0 0 Z " fill="#884910" transform="translate(724,427)"/>
<path d="M0 0 C0.33 0 0.66 0 1 0 C1.33 8.25 1.66 16.5 2 25 C-1.3 24.67 -4.6 24.34 -8 24 C-8 23.67 -8 23.34 -8 23 C-5.36 23 -2.72 23 0 23 C0 15.41 0 7.82 0 0 Z " fill="#944A0C" transform="translate(499,276)"/>
<path d="M0 0 C1 2 1 2 0.75 3.9375 C-0.11880518 6.32671424 -1.21434286 7.21434286 -3 9 C-4.04622875 10.97620986 -5.05439935 12.9737129 -6 15 C-6.71484375 13.359375 -6.71484375 13.359375 -7 11 C-5.56640625 8.203125 -5.56640625 8.203125 -3.5625 5.25 C-2.90378906 4.26515625 -2.24507813 3.2803125 -1.56640625 2.265625 C-1.04949219 1.51796875 -0.53257812 0.7703125 0 0 Z " fill="#774110" transform="translate(403,347)"/>
<path d="M0 0 C4.59306496 1.4859916 7.43569245 3.85014682 11 7 C9 8 9 8 6.625 7.4375 C3.23776461 5.58258538 1.93012361 3.28835874 0 0 Z " fill="#854810" transform="translate(440,641)"/>
<path d="M0 0 C0.66 0.33 1.32 0.66 2 1 C1.55090939 2.48199902 1.09043436 3.96055236 0.625 5.4375 C0.36976563 6.26121094 0.11453125 7.08492188 -0.1484375 7.93359375 C-1 10 -1 10 -3 11 C-2.53199289 6.94393835 -2.12046792 3.53411321 0 0 Z " fill="#B46010" transform="translate(660,394)"/>
<path d="" fill="#DA670F" transform="translate(0,0)"/>
<path d="" fill="#C15A0B" transform="translate(0,0)"/>
<path d="" fill="#C05D14" transform="translate(0,0)"/>
<path d="" fill="#C25B0E" transform="translate(0,0)"/>
<path d="" fill="#DF690E" transform="translate(0,0)"/>
<path d="" fill="#DF6A13" transform="translate(0,0)"/>
<path d="" fill="#DD6C12" transform="translate(0,0)"/>
<path d="" fill="#DD6D15" transform="translate(0,0)"/>
<path d="" fill="#B85A12" transform="translate(0,0)"/>
<path d="" fill="#D66911" transform="translate(0,0)"/>
<path d="" fill="#DC6911" transform="translate(0,0)"/>
<path d="" fill="#DB6B15" transform="translate(0,0)"/>
<path d="" fill="#C55D10" transform="translate(0,0)"/>
<path d="" fill="#DF6D13" transform="translate(0,0)"/>
<path d="" fill="#E46D13" transform="translate(0,0)"/>
<path d="" fill="#DC6A10" transform="translate(0,0)"/>
<path d="" fill="#BF5B11" transform="translate(0,0)"/>
<path d="" fill="#E16A10" transform="translate(0,0)"/>
<path d="" fill="#DB6814" transform="translate(0,0)"/>
<path d="" fill="#DB6A15" transform="translate(0,0)"/>
<path d="" fill="#DD6A13" transform="translate(0,0)"/>
<path d="" fill="#C05D12" transform="translate(0,0)"/>
<path d="" fill="#E26911" transform="translate(0,0)"/>
<path d="" fill="#DA6913" transform="translate(0,0)"/>
<path d="" fill="#C25C11" transform="translate(0,0)"/>
<path d="" fill="#E46D0F" transform="translate(0,0)"/>
<path d="" fill="#E16B0E" transform="translate(0,0)"/>
<path d="" fill="#E16C13" transform="translate(0,0)"/>
<path d="" fill="#E06D10" transform="translate(0,0)"/>
<path d="" fill="#E16812" transform="translate(0,0)"/>
<path d="" fill="#DC6811" transform="translate(0,0)"/>
<path d="" fill="#DF6911" transform="translate(0,0)"/>
<path d="" fill="#E46E0F" transform="translate(0,0)"/>
<path d="" fill="#DE6C0E" transform="translate(0,0)"/>
<path d="" fill="#DD6B10" transform="translate(0,0)"/>
<path d="" fill="#D06410" transform="translate(0,0)"/>
<path d="" fill="#D36710" transform="translate(0,0)"/>
<path d="" fill="#E26B12" transform="translate(0,0)"/>
<path d="" fill="#E46B12" transform="translate(0,0)"/>
<path d="" fill="#E36A0E" transform="translate(0,0)"/>
<path d="" fill="#E26E10" transform="translate(0,0)"/>
</svg>
